<mxfile host="app.diagrams.net" modified="2023-07-25T20:12:32.967Z" agent="Mozilla/5.0 (Windows NT 10.0; Win64; x64) AppleWebKit/537.36 (KHTML, like Gecko) Chrome/113.0.0.0 Safari/537.36 OPR/99.0.0.0" etag="YaX59phMuOTJM-R_7EV-" version="21.6.5" type="github">
  <diagram id="R2lEEEUBdFMjLlhIrx00" name="Page-1">
    <mxGraphModel dx="1120" dy="523" grid="0" gridSize="10" guides="1" tooltips="1" connect="1" arrows="1" fold="1" page="1" pageScale="1" pageWidth="850" pageHeight="1100" math="0" shadow="0" extFonts="Permanent Marker^https://fonts.googleapis.com/css?family=Permanent+Marker">
      <root>
        <mxCell id="0" />
        <mxCell id="1" parent="0" />
        <mxCell id="qXWGRZ1UWKqwERisHPRL-15" style="edgeStyle=orthogonalEdgeStyle;rounded=0;orthogonalLoop=1;jettySize=auto;html=1;entryX=0;entryY=0.5;entryDx=0;entryDy=0;entryPerimeter=0;" edge="1" parent="1" source="qXWGRZ1UWKqwERisHPRL-1" target="qXWGRZ1UWKqwERisHPRL-7">
          <mxGeometry relative="1" as="geometry">
            <mxPoint x="283" y="103" as="targetPoint" />
          </mxGeometry>
        </mxCell>
        <mxCell id="qXWGRZ1UWKqwERisHPRL-1" value="Inicio" style="rounded=1;whiteSpace=wrap;html=1;" vertex="1" parent="1">
          <mxGeometry x="110" y="73.5" width="120" height="45" as="geometry" />
        </mxCell>
        <mxCell id="qXWGRZ1UWKqwERisHPRL-17" style="edgeStyle=orthogonalEdgeStyle;rounded=0;orthogonalLoop=1;jettySize=auto;html=1;entryX=0.5;entryY=0;entryDx=0;entryDy=0;entryPerimeter=0;" edge="1" parent="1" source="qXWGRZ1UWKqwERisHPRL-2" target="qXWGRZ1UWKqwERisHPRL-4">
          <mxGeometry relative="1" as="geometry">
            <mxPoint x="543" y="250" as="targetPoint" />
          </mxGeometry>
        </mxCell>
        <mxCell id="qXWGRZ1UWKqwERisHPRL-25" style="edgeStyle=orthogonalEdgeStyle;rounded=0;orthogonalLoop=1;jettySize=auto;html=1;exitX=0.5;exitY=1;exitDx=0;exitDy=0;entryX=0.5;entryY=0;entryDx=0;entryDy=0;" edge="1" parent="1" source="qXWGRZ1UWKqwERisHPRL-2" target="qXWGRZ1UWKqwERisHPRL-5">
          <mxGeometry relative="1" as="geometry" />
        </mxCell>
        <mxCell id="qXWGRZ1UWKqwERisHPRL-2" value="API" style="rounded=0;whiteSpace=wrap;html=1;" vertex="1" parent="1">
          <mxGeometry x="431" y="63.5" width="120" height="65" as="geometry" />
        </mxCell>
        <mxCell id="qXWGRZ1UWKqwERisHPRL-3" value="Notificaciones" style="rounded=0;whiteSpace=wrap;html=1;" vertex="1" parent="1">
          <mxGeometry x="278" y="150" width="120" height="60" as="geometry" />
        </mxCell>
        <mxCell id="qXWGRZ1UWKqwERisHPRL-26" style="edgeStyle=orthogonalEdgeStyle;rounded=0;orthogonalLoop=1;jettySize=auto;html=1;exitX=0.5;exitY=1;exitDx=0;exitDy=0;exitPerimeter=0;entryX=1;entryY=0.5;entryDx=0;entryDy=0;" edge="1" parent="1" source="qXWGRZ1UWKqwERisHPRL-4" target="qXWGRZ1UWKqwERisHPRL-5">
          <mxGeometry relative="1" as="geometry" />
        </mxCell>
        <mxCell id="qXWGRZ1UWKqwERisHPRL-4" value="Datos" style="shape=cylinder3;whiteSpace=wrap;html=1;boundedLbl=1;backgroundOutline=1;size=15;" vertex="1" parent="1">
          <mxGeometry x="606" y="31" width="60" height="80" as="geometry" />
        </mxCell>
        <mxCell id="qXWGRZ1UWKqwERisHPRL-19" value="" style="edgeStyle=orthogonalEdgeStyle;rounded=0;orthogonalLoop=1;jettySize=auto;html=1;" edge="1" parent="1" source="qXWGRZ1UWKqwERisHPRL-5" target="qXWGRZ1UWKqwERisHPRL-18">
          <mxGeometry relative="1" as="geometry" />
        </mxCell>
        <mxCell id="qXWGRZ1UWKqwERisHPRL-27" style="edgeStyle=orthogonalEdgeStyle;rounded=0;orthogonalLoop=1;jettySize=auto;html=1;exitX=0;exitY=0.5;exitDx=0;exitDy=0;" edge="1" parent="1" source="qXWGRZ1UWKqwERisHPRL-5">
          <mxGeometry relative="1" as="geometry">
            <mxPoint x="403" y="183" as="targetPoint" />
          </mxGeometry>
        </mxCell>
        <mxCell id="qXWGRZ1UWKqwERisHPRL-5" value="Admin" style="verticalLabelPosition=bottom;verticalAlign=top;html=1;shape=hexagon;perimeter=hexagonPerimeter2;arcSize=6;size=0.27;" vertex="1" parent="1">
          <mxGeometry x="442" y="156" width="89" height="54" as="geometry" />
        </mxCell>
        <mxCell id="qXWGRZ1UWKqwERisHPRL-13" style="edgeStyle=orthogonalEdgeStyle;rounded=0;orthogonalLoop=1;jettySize=auto;html=1;exitX=1;exitY=0.5;exitDx=0;exitDy=0;exitPerimeter=0;entryX=0;entryY=0.5;entryDx=0;entryDy=0;" edge="1" parent="1" source="qXWGRZ1UWKqwERisHPRL-7" target="qXWGRZ1UWKqwERisHPRL-2">
          <mxGeometry relative="1" as="geometry" />
        </mxCell>
        <mxCell id="qXWGRZ1UWKqwERisHPRL-7" value="Problemas" style="shape=tape;whiteSpace=wrap;html=1;strokeWidth=2;size=0.19" vertex="1" parent="1">
          <mxGeometry x="293" y="71" width="78" height="50" as="geometry" />
        </mxCell>
        <mxCell id="qXWGRZ1UWKqwERisHPRL-18" value="Empleados" style="whiteSpace=wrap;html=1;verticalAlign=top;arcSize=6;" vertex="1" parent="1">
          <mxGeometry x="426.5" y="250" width="120" height="60" as="geometry" />
        </mxCell>
      </root>
    </mxGraphModel>
  </diagram>
</mxfile>
